<?xml version="1.0" standalone="no"?>
<!DOCTYPE svg PUBLIC "-//W3C//DTD SVG 20010904//EN"
 "http://www.w3.org/TR/2001/REC-SVG-20010904/DTD/svg10.dtd">
<svg version="1.0" xmlns="http://www.w3.org/2000/svg"
 width="300.000000pt" height="300.000000pt" viewBox="0 0 300.000000 300.000000"
 preserveAspectRatio="xMidYMid meet">

<g transform="translate(0.000000,300.000000) scale(0.100000,-0.100000)"
fill="#000000" stroke="none">
<path d="M1350 2969 c-352 -40 -675 -200 -918 -454 -145 -151 -263 -344 -322
-527 -32 -99 -64 -248 -55 -257 3 -3 8 5 12 17 5 21 12 16 82 -55 42 -43 94
-91 116 -108 22 -16 68 -56 102 -90 33 -33 89 -85 123 -115 105 -92 120 -111
120 -149 0 -19 3 -31 7 -28 3 4 9 209 12 455 l6 447 27 55 c31 63 94 131 153
166 92 53 117 55 717 52 l553 -3 58 -23 c76 -31 164 -113 202 -189 l30 -58 0
-605 0 -605 -29 -63 c-37 -80 -122 -161 -203 -193 -56 -23 -69 -24 -446 -27
-234 -2 -385 -7 -382 -13 4 -5 16 -9 29 -9 15 0 42 -20 78 -58 30 -31 77 -77
104 -101 313 -283 371 -340 353 -353 -17 -11 22 -3 116 24 183 53 392 183 556
347 167 168 277 345 353 571 73 216 97 410 77 605 -39 365 -184 672 -435 920
-320 317 -761 473 -1196 424z"/>
<path d="M950 2211 c-72 -23 -119 -63 -145 -123 -13 -32 -15 -109 -14 -550 0
-376 3 -507 11 -490 6 12 15 22 19 22 14 0 107 -84 114 -102 3 -10 12 -18 18
-18 14 0 157 -137 157 -150 0 -5 -15 -10 -32 -12 -76 -8 401 -19 682 -16 304
3 305 3 350 28 24 14 58 45 75 68 l30 44 0 583 0 583 -30 44 c-17 23 -51 54
-75 68 l-45 25 -545 2 c-300 1 -556 -2 -570 -6z m1110 -150 c14 -10 31 -35 37
-55 22 -65 -18 -127 -93 -142 -40 -8 -94 30 -112 78 -13 33 -12 41 4 75 34 68
104 87 164 44z m-406 -133 c112 -37 215 -131 269 -246 30 -64 32 -73 32 -188
0 -118 -1 -121 -37 -195 -47 -95 -130 -177 -225 -222 -65 -30 -74 -32 -188
-32 -114 0 -123 2 -188 32 -95 45 -178 127 -225 222 -37 74 -37 77 -37 196 0
120 0 122 37 196 49 98 117 168 211 213 118 58 226 66 351 24z"/>
<path d="M1441 1790 c-89 -19 -174 -89 -214 -179 -28 -62 -28 -169 0 -232 87
-196 338 -245 488 -95 61 60 85 121 85 211 0 90 -24 151 -85 211 -71 72 -176
104 -274 84z"/>
</g>
</svg>
